# xmcd CD database file
#
# Track frame offsets:
#	150
#	18498
#	33708
#	49963
#	70175
#	99290
#	118173
#	140623
#	157598
#	175395
#
# Disc length: 2604 seconds
#
# Revision: 0
# Processed by: cddbd v1.5PL3 Copyright (c) Steve Scherf et al.
# Submitted via: CDex 1.50
#
DISCID=850a2a0a
DTITLE=Asami Kado - Seminude
DYEAR=1900
DGENRE=JPop
TTITLE0=Blue Moon
TTITLE1=Sunete Gokigen
TTITLE2=Ichidodake Mane
TTITLE3=Nice Middle
TTITLE4=Jigazoh
TTITLE5=Osukini Semete
TTITLE6=Irono Nai Kohzu
TTITLE7=Kimagure Kitten
TTITLE8=Season
TTITLE9=Gekkabijin
EXTD=
EXTT0=
EXTT1=
EXTT2=
EXTT3=
EXTT4=
EXTT5=
EXTT6=
EXTT7=
EXTT8=
EXTT9=
PLAYORDER=
